<svg id="eloHR3LyDEB1" xmlns="http://www.w3.org/2000/svg" xmlns:xlink="http://www.w3.org/1999/xlink" viewBox="0 0 300 150" shape-rendering="geometricPrecision" text-rendering="geometricPrecision" project-id="7a0f8e30faf94701b765a048838f158e" export-id="f6e8725a0cda40e182377660e0f530ec" cached="false"><g transform="matrix(1.08114 0 0 1.06316-18.357028-112.334028)"><line x1="12.714559" y1="0" x2="-19.071836" y2="0.000296" transform="translate(41.6084 212.015)" fill="none" stroke="#3f5787" stroke-width="3"/><line x1="-43.229495" y1="0" x2="43.229496" y2="0" transform="matrix(1.40294 0 0 1 153.624 212.015)" fill="none" stroke="#3f5787" stroke-width="3"/><ellipse rx="37.5079" ry="36.2365" transform="matrix(.6 0 0 0.62 75.5562 204.069)" fill="#fff" stroke="#445b8a" stroke-width="3"/><ellipse rx="37.5079" ry="36.2365" transform="matrix(.6 0 0 0.62 235.251 203.331)" fill="#fff" stroke="#445b8a" stroke-width="3"/><line x1="-6.357279" y1="3.973296" x2="6.357279" y2="-3.973296" transform="translate(28.8938 208.042)" fill="none" stroke="#3f5787" stroke-width="3"/><line x1="0" y1="7.628735" x2="0" y2="-7.628735" transform="translate(35.2511 196.44)" fill="none" stroke="#3f5787" stroke-width="3"/><line x1="6.357279" y1="0" x2="-6.357279" y2="0" transform="translate(28.8938 188.811)" fill="none" stroke="#3f5787" stroke-width="3"/><line x1="-3.178639" y1="7.946599" x2="3.178639" y2="-7.946599" transform="translate(25.7152 180.865)" fill="none" stroke="#3f5787" stroke-width="3"/><line x1="-14.621741" y1="6.357279" x2="14.621742" y2="-6.357279" transform="translate(43.5156 166.561)" fill="none" stroke="#3f5787" stroke-width="3"/><line x1="-23.521932" y1="5.101716" x2="23.521932" y2="-5.101717" transform="translate(81.6592 155.102)" fill="none" stroke="#3f5787" stroke-width="3"/><line x1="-15.575334" y1="9.202161" x2="15.575334" y2="-9.202162" transform="translate(121.392 140.798)" fill="none" stroke="#3f5787" stroke-width="3"/><line x1="-14.939606" y1="2.860775" x2="14.939606" y2="-2.860776" transform="translate(151.907 128.735)" fill="none" stroke="#3f5787" stroke-width="3"/><line x1="-29.879211" y1="-2.860776" x2="29.879211" y2="2.860775" transform="translate(196.726 128.735)" fill="none" stroke="#3f5787" stroke-width="3"/><line x1="-22.250477" y1="-14.303878" x2="22.250477" y2="14.303878" transform="translate(248.856 145.9)" fill="none" stroke="#3f5787" stroke-width="3"/><line x1="-6.675143" y1="0" x2="6.675143" y2="0" transform="translate(277.781 160.203)" fill="none" stroke="#3f5787" stroke-width="3"/><line x1="-2.225047" y1="-3.17864" x2="2.225048" y2="3.17864" transform="translate(286.681 163.382)" fill="none" stroke="#3f5787" stroke-width="3"/><line x1="0" y1="-20.343293" x2="0" y2="20.343293" transform="translate(288.907 183.725)" fill="none" stroke="#3f5787" stroke-width="3"/><line x1="5.562619" y1="-3.973296" x2="-5.562619" y2="3.973296" transform="translate(283.344 208.042)" fill="none" stroke="#3f5787" stroke-width="3"/><line x1="10.012715" y1="0" x2="-10.012715" y2="0" transform="translate(267.769 212.015)" fill="none" stroke="#3f5787" stroke-width="3"/><line x1="0" y1="-4.601081" x2="0" y2="4.601081" transform="translate(271.106 145.399)" fill="none" stroke="#3f5787" stroke-width="3"/><line x1="-7.787667" y1="0" x2="7.787667" y2="0" transform="translate(278.894 150)" fill="none" stroke="#3f5787" stroke-width="3"/><line x1="0" y1="4.601081" x2="0" y2="-4.601081" transform="translate(286.681 145.399)" fill="none" stroke="#3f5787" stroke-width="3"/><line x1="7.787667" y1="0" x2="-7.787667" y2="0" transform="translate(278.894 140.798)" fill="none" stroke="#3f5787" stroke-width="3"/><line x1="0" y1="-5.101717" x2="0" y2="5.101716" transform="translate(278.894 155.102)" fill="none" stroke="#3f5787" stroke-width="3"/><line x1="0" y1="-5.101717" x2="0" y2="5.101716" transform="translate(283.344 155.102)" fill="none" stroke="#3f5787" stroke-width="3"/><line x1="-12.396695" y1="9.527972" x2="12.396694" y2="-9.527972" transform="translate(124.571 145.574)" fill="none" stroke="#3f5787" stroke-width="3"/><line x1="-14.939606" y1="2.225048" x2="14.939606" y2="-2.225047" transform="translate(151.907 133.821)" fill="none" stroke="#3f5787" stroke-width="3"/><line x1="0" y1="-10.640496" x2="0" y2="10.640496" transform="translate(166.847 144.461)" fill="none" stroke="#3f5787" stroke-width="3"/><line x1="27.3363" y1="0" x2="-27.336301" y2="0" transform="translate(139.51 155.102)" fill="none" stroke="#3f5787" stroke-width="3"/><line x1="-0.317864" y1="-10.640496" x2="0.317864" y2="10.640496" transform="translate(174.793 144.461)" fill="none" stroke="#3f5787" stroke-width="3"/><line x1="-20.343294" y1="-3.488557" x2="20.343293" y2="3.488557" transform="translate(194.819 137.309)" fill="none" stroke="#3f5787" stroke-width="3"/><line x1="0" y1="-7.151939" x2="0" y2="7.151939" transform="translate(215.162 147.95)" fill="none" stroke="#3f5787" stroke-width="3"/><line x1="20.02543" y1="0" x2="-20.025429" y2="0" transform="translate(195.137 155.102)" fill="none" stroke="#3f5787" stroke-width="3"/><line x1="-7.946624" y1="0" x2="7.946624" y2="0" transform="translate(147.457 172.918)" fill="none" stroke="#3f5787" stroke-width="3"/><line x1="-6.675136" y1="0" x2="6.675135" y2="0" transform="translate(203.401 172.918)" fill="none" stroke="#3f5787" stroke-width="3"/><line x1="-11.125239" y1="0" x2="11.125238" y2="0" transform="translate(36.8404 180.865)" fill="none" stroke="#3f5787" stroke-width="3"/><line x1="-5.085823" y1="7.151939" x2="5.085823" y2="-7.151938" transform="translate(53.0515 173.713)" fill="none" stroke="#3f5787" stroke-width="3"/><line x1="14.621741" y1="-3.17864" x2="-14.621742" y2="3.17864" transform="translate(43.5156 169.739)" fill="none" stroke="#3f5787" stroke-width="3"/><line x1="7.787667" y1="0" x2="-7.787667" y2="0" transform="translate(278.894 169.739)" fill="none" stroke="#3f5787" stroke-width="3"/><line x1="0" y1="-5.562619" x2="0" y2="5.562619" transform="translate(271.106 175.302)" fill="none" stroke="#3f5787" stroke-width="3"/><line x1="-7.787667" y1="0" x2="7.787667" y2="0" transform="translate(278.894 180.865)" fill="none" stroke="#3f5787" stroke-width="3"/><line x1="-45.77241" y1="0" x2="45.77241" y2="0" transform="translate(150.954 204.069)" fill="none" stroke="#3f5787" stroke-width="3"/></g></svg>
