<svg id="esDT32KrmZ41" xmlns="http://www.w3.org/2000/svg" xmlns:xlink="http://www.w3.org/1999/xlink" viewBox="0 0 300 150" shape-rendering="geometricPrecision" text-rendering="geometricPrecision" project-id="7a0f8e30faf94701b765a048838f158e" export-id="11ec1a7ad4f24c488d293db5b623882a" cached="false"><g transform="matrix(.729803 0 0 0.729803 44.755429-42.338206)"><line x1="-8.582326" y1="-2.542911" x2="8.582326" y2="2.542911" transform="translate(36.2047 211.697)" fill="none" stroke="#3f5787" stroke-width="3"/><line x1="-13.66815" y1="0" x2="13.66815" y2="0" transform="translate(58.4552 214.24)" fill="none" stroke="#3f5787" stroke-width="3"/><line x1="6.516211" y1="0" x2="-6.516211" y2="0" transform="translate(248.379 214.24)" fill="none" stroke="#3f5787" stroke-width="3"/><line x1="-16.68786" y1="0" x2="16.68786" y2="0" transform="matrix(2.3476 0 0 1 157.151 214.24)" fill="none" stroke="#3f5787" stroke-width="3"/><ellipse rx="37.5079" ry="36.2365" transform="matrix(.838986 0 0 0.824546 86.5063 209.154)" fill="#fff" stroke="#445b8a" stroke-width="3"/><ellipse rx="37.5079" ry="36.2365" transform="matrix(.834731 0 0 0.824545 223.268 209.154)" fill="#fff" stroke="#445b8a" stroke-width="3"/><line x1="-9.138588" y1="0" x2="9.138588" y2="0" transform="translate(140.861 150)" fill="none" stroke="#3f5787" stroke-width="3"/><line x1="-13.350287" y1="0" x2="13.350286" y2="0" transform="translate(228.512 150)" fill="none" stroke="#3f5787" stroke-width="3"/><line x1="-3.89428" y1="-19.405404" x2="3.894281" y2="19.405405" transform="translate(265.305 153.512)" fill="none" stroke="#3f5787" stroke-width="3"/><line x1="1.94714" y1="-19.38975" x2="-1.94714" y2="19.389749" transform="translate(267.252 192.307)" fill="none" stroke="#3f5787" stroke-width="3"/><line x1="5.363901" y1="-1.2715" x2="-5.363902" y2="1.2715" transform="translate(259.941 212.969)" fill="none" stroke="#3f5787" stroke-width="3"/><line x1="-13.270831" y1="0" x2="13.270831" y2="0" transform="translate(45.1844 153.512)" fill="none" stroke="#3f5787" stroke-width="3"/><line x1="-3.019698" y1="-4.132052" x2="3.019698" y2="4.132052" transform="translate(61.4749 157.644)" fill="none" stroke="#3f5787" stroke-width="3"/><line x1="3.019698" y1="-1.438598" x2="-3.019698" y2="1.438598" transform="translate(61.4749 163.215)" fill="none" stroke="#3f5787" stroke-width="3"/><line x1="6.834087" y1="-3.178526" x2="-6.834087" y2="3.178527" transform="translate(51.6211 167.832)" fill="none" stroke="#3f5787" stroke-width="3"/><line x1="8.582326" y1="0" x2="-8.582326" y2="0" transform="translate(36.2047 171.01)" fill="none" stroke="#3f5787" stroke-width="3"/><line x1="4.291163" y1="-15.89302" x2="-4.291163" y2="15.893019" transform="translate(31.9135 155.117)" fill="none" stroke="#3f5787" stroke-width="3"/><line x1="0" y1="-19.071775" x2="0" y2="19.071775" transform="translate(27.6224 190.082)" fill="none" stroke="#3f5787" stroke-width="3"/></g><line x1="13.918336" y1="19.022095" x2="-13.918336" y2="-19.022095" transform="translate(221.615421 36.511095)" fill="none" stroke="#3f5787" stroke-width="3"/><line x1="30.070438" y1="0" x2="-30.070438" y2="0" transform="translate(177.626647 17.489)" fill="none" stroke="#3f5787" stroke-width="3"/><line x1="-13.106782" y1="4.522683" x2="13.106783" y2="-4.522683" transform="translate(84.284484 54.745189)" fill="none" stroke="#3f5787" stroke-width="3"/><line x1="2.941366" y1="0" x2="-2.941366" y2="0" transform="translate(100.332633 50.222506)" fill="none" stroke="#3f5787" stroke-width="3"/><line x1="8.351289" y1="-2.549445" x2="-8.351289" y2="2.549445" transform="translate(139.20492 20.038441)" fill="none" stroke="#3f5787" stroke-width="3"/><line x1="14.544887" y1="-13.81731" x2="-14.544887" y2="13.81731" transform="translate(117.818886 36.405196)" fill="none" stroke="#3f5787" stroke-width="3"/><line x1="-9.459064" y1="10.489511" x2="9.459064" y2="-10.489511" transform="translate(122.904709 39.732995)" fill="none" stroke="#3f5787" stroke-width="3"/><line x1="-7.596218" y1="3.327799" x2="7.596218" y2="-3.327799" transform="translate(139.959991 25.915685)" fill="none" stroke="#3f5787" stroke-width="3"/><line x1="-3.334685" y1="0" x2="3.334685" y2="0" transform="translate(150.890894 22.587886)" fill="none" stroke="#3f5787" stroke-width="3"/><line x1="0" y1="-13.81731" x2="0" y2="13.81731" transform="translate(154.225579 36.405196)" fill="none" stroke="#3f5787" stroke-width="3"/><line x1="20.389967" y1="0" x2="-20.389967" y2="0" transform="translate(133.835612 50.222506)" fill="none" stroke="#3f5787" stroke-width="3"/><line x1="0" y1="-13.81731" x2="0" y2="13.81731" transform="translate(159.4447 36.405196)" fill="none" stroke="#3f5787" stroke-width="3"/><line x1="-21.168196" y1="0" x2="21.168196" y2="0" transform="translate(180.612897 22.587886)" fill="none" stroke="#3f5787" stroke-width="3"/><line x1="-2.957996" y1="-13.81731" x2="2.957996" y2="13.81731" transform="translate(204.739089 36.405196)" fill="none" stroke="#3f5787" stroke-width="3"/><line x1="24.126192" y1="0" x2="-24.126192" y2="0" transform="translate(183.570893 50.222506)" fill="none" stroke="#3f5787" stroke-width="3"/><line x1="2.493633" y1="0" x2="-2.493632" y2="0" transform="translate(233.040125 59.267872)" fill="none" stroke="#3f5787" stroke-width="3"/><line x1="-1.246817" y1="-5.799387" x2="1.246817" y2="5.799387" transform="translate(231.793309 65.067259)" fill="none" stroke="#3f5787" stroke-width="3"/><line x1="-4.001716" y1="-2.066677" x2="4.001716" y2="2.066677" transform="translate(235.795025 72.933323)" fill="none" stroke="#3f5787" stroke-width="3"/></svg>
