<svg id="eO0SvDAVhzc1" xmlns="http://www.w3.org/2000/svg" xmlns:xlink="http://www.w3.org/1999/xlink" viewBox="0 0 300 150" shape-rendering="geometricPrecision" text-rendering="geometricPrecision" project-id="7a0f8e30faf94701b765a048838f158e" export-id="5302f86e109f4201a42687abbc26231c" cached="false"><g transform="matrix(1.041419 0 0 0.893097-6.494897-72.429955)"><ellipse rx="37.5079" ry="36.2365" transform="matrix(.70339 0 0 0.72807 79.4342 199.301)" fill="#fff" stroke="#445b8a" stroke-width="3"/><ellipse rx="37.5079" ry="36.2365" transform="matrix(.70339 0 0 0.72807 218.659 199.301)" fill="#fff" stroke="#445b8a" stroke-width="3"/><line x1="-43.229495" y1="0" x2="43.229496" y2="0" transform="translate(147.775 204.069)" fill="none" stroke="#3f5787" stroke-width="3"/><line x1="-9.059117" y1="0" x2="9.059117" y2="0" transform="matrix(1.24561 0 0 1 255.054 204.069)" fill="none" stroke="#3f5787" stroke-width="3"/><line x1="13.032422" y1="0" x2="-13.032422" y2="0" transform="translate(40.0191 204.069)" fill="none" stroke="#3f5787" stroke-width="3"/><line x1="0" y1="5.403689" x2="0" y2="-5.403688" transform="translate(26.9867 198.665)" fill="none" stroke="#3f5787" stroke-width="3"/><line x1="-2.860775" y1="2.225047" x2="2.860776" y2="-2.225047" transform="translate(29.8474 191.036)" fill="none" stroke="#3f5787" stroke-width="3"/><line x1="0" y1="7.946599" x2="0" y2="-7.9466" transform="translate(32.7082 180.865)" fill="none" stroke="#3f5787" stroke-width="3"/><line x1="2.860776" y1="5.721551" x2="-2.860776" y2="-5.721551" transform="translate(29.8474 167.196)" fill="none" stroke="#3f5787" stroke-width="3"/><line x1="0" y1="5.737445" x2="0" y2="-5.737444" transform="translate(26.9867 155.737)" fill="none" stroke="#3f5787" stroke-width="3"/><line x1="-13.509215" y1="6.341386" x2="13.509214" y2="-6.341386" transform="translate(40.4959 143.659)" fill="none" stroke="#3f5787" stroke-width="3"/><line x1="-19.230772" y1="2.542912" x2="19.230773" y2="-2.542912" transform="translate(73.2359 134.774)" fill="none" stroke="#3f5787" stroke-width="3"/><line x1="-14.303877" y1="14.621742" x2="14.303878" y2="-14.621742" transform="translate(106.771 117.61)" fill="none" stroke="#3f5787" stroke-width="3"/><line x1="-14.462812" y1="2.225048" x2="14.462812" y2="-2.225048" transform="translate(135.537 100.763)" fill="none" stroke="#3f5787" stroke-width="3"/><line x1="-2.542912" y1="5.403689" x2="2.542912" y2="-5.403688" transform="translate(266.656 198.665)" fill="none" stroke="#3f5787" stroke-width="3"/><line x1="0" y1="15.893197" x2="0" y2="-15.893198" transform="translate(269.199 177.368)" fill="none" stroke="#3f5787" stroke-width="3"/><line x1="1.271456" y1="8.908137" x2="-1.271456" y2="-8.908138" transform="translate(267.928 152.567)" fill="none" stroke="#3f5787" stroke-width="3"/><line x1="1.271456" y1="3.170693" x2="-1.271456" y2="-3.170693" transform="translate(265.385 140.488)" fill="none" stroke="#3f5787" stroke-width="3"/><line x1="9.059117" y1="1.271456" x2="-9.059117" y2="-1.271456" transform="translate(255.054 136.046)" fill="none" stroke="#3f5787" stroke-width="3"/><line x1="13.191357" y1="17.641449" x2="-13.191357" y2="-17.64145" transform="translate(232.804 118.404)" fill="none" stroke="#3f5787" stroke-width="3"/><line x1="5.721554" y1="1.112524" x2="-5.721554" y2="-1.112524" transform="translate(213.891 99.6504)" fill="none" stroke="#3f5787" stroke-width="3"/><line x1="-29.084552" y1="0.317864" x2="29.084552" y2="-0.317864" transform="translate(179.085 98.8557)" fill="none" stroke="#3f5787" stroke-width="3"/><line x1="10.807374" y1="-11.443102" x2="-10.807375" y2="11.443102" transform="translate(110.267 120.788)" fill="none" stroke="#3f5787" stroke-width="3"/><line x1="-14.46281" y1="3.17864" x2="14.46281" y2="-3.17864" transform="translate(135.537 106.167)" fill="none" stroke="#3f5787" stroke-width="3"/><line x1="0" y1="-14.621742" x2="0" y2="14.621742" transform="translate(150 117.61)" fill="none" stroke="#3f5787" stroke-width="3"/><line x1="25.270185" y1="0" x2="-25.270184" y2="0" transform="translate(124.73 132.231)" fill="none" stroke="#3f5787" stroke-width="3"/><line x1="0" y1="-14.621742" x2="0" y2="14.621742" transform="translate(156.675 117.61)" fill="none" stroke="#3f5787" stroke-width="3"/><line x1="-21.932613" y1="0" x2="21.932613" y2="0" transform="translate(178.608 102.988)" fill="none" stroke="#3f5787" stroke-width="3"/><line x1="0" y1="-14.621742" x2="0" y2="14.621742" transform="translate(200.54 117.61)" fill="none" stroke="#3f5787" stroke-width="3"/><line x1="21.932613" y1="0" x2="-21.932613" y2="0" transform="translate(178.608 132.231)" fill="none" stroke="#3f5787" stroke-width="3"/><line x1="0" y1="-13.032422" x2="0" y2="13.032422" transform="translate(208.169 119.199)" fill="none" stroke="#3f5787" stroke-width="3"/><line x1="-9.853782" y1="-11.443102" x2="9.853782" y2="11.443102" transform="translate(219.612 119.199)" fill="none" stroke="#3f5787" stroke-width="3"/><line x1="9.853782" y1="0" x2="-9.853782" y2="0" transform="translate(218.023 132.231)" fill="none" stroke="#3f5787" stroke-width="3"/><line x1="-9.29752" y1="0" x2="9.29752" y2="0" transform="translate(134.027 155.737)" fill="none" stroke="#3f5787" stroke-width="3"/><line x1="-8.264463" y1="0" x2="8.264463" y2="0" transform="translate(192.276 155.737)" fill="none" stroke="#3f5787" stroke-width="3"/><line x1="-13.032422" y1="2.860775" x2="13.032421" y2="-2.860776" transform="translate(40.0191 164.336)" fill="none" stroke="#3f5787" stroke-width="3"/><line x1="0" y1="4.454069" x2="0" y2="-4.454069" transform="translate(53.0515 157.021)" fill="none" stroke="#3f5787" stroke-width="3"/><line x1="13.032421" y1="0" x2="-13.032422" y2="0" transform="translate(40.0191 152.567)" fill="none" stroke="#3f5787" stroke-width="3"/><line x1="5.165287" y1="-3.170693" x2="-5.165286" y2="3.170693" transform="translate(260.219 146.829)" fill="none" stroke="#3f5787" stroke-width="3"/><line x1="0" y1="-3.51041" x2="0" y2="3.51041" transform="translate(255.054 153.51)" fill="none" stroke="#3f5787" stroke-width="3"/><line x1="-7.07247" y1="-2.227035" x2="7.072471" y2="2.227034" transform="translate(262.127 159.248)" fill="none" stroke="#3f5787" stroke-width="3"/></g></svg>
